<svg xmlns="http://www.w3.org/2000/svg" fill="none" viewBox="0 0 24 24" stroke-width="1.5" stroke="currentColor">
  <path stroke-linecap="round" stroke-linejoin="round" d="M12 12.75c1.148 0 2.278.08 3.383.237 1.037.146 1.866.966 1.866 2.013 0 3.728-2.35 6.75-5.25 6.75S6.75 18.728 6.75 15c0-1.046.83-1.867 1.866-2.013A24.204 24.204 0 0 1 12 12.75Zm0 0c2.883 0 5.647.508 8.207 1.44a23.91 23.91 0 0 1-.244.742c-.152.433-.505.822-.89 1.169-.506.457-1.167.867-1.857 1.223-.69.357-1.42.663-2.169.917-.45.154-.923.283-1.408.396M12 12.75c-2.883 0-5.647.508-8.207 1.44.06.253.156.498.244.742.152.433.505.822.89 1.169.506.457 1.167.867 1.857 1.223.69.357 1.42.663 2.169.917.45.154.923.283 1.408.396M15 8.25a3 3 0 1 1-6 0 3 3 0 0 1 6 0Zm3 3.75 1.5-1.5M21 12l1.5 1.5M3 12l1.5-1.5M6 8.25 4.5 6.75M18 8.25l1.5-1.5" />
</svg>
